<?xml version="1.0" encoding="UTF-8" standalone="no"?>
<!DOCTYPE svg PUBLIC "-//W3C//DTD SVG 1.1//EN" "http://www.w3.org/Graphics/SVG/1.1/DTD/svg11.dtd">
<svg version="1.1" xmlns="http://www.w3.org/2000/svg" xmlns:xlink="http://www.w3.org/1999/xlink" preserveAspectRatio="xMidYMid meet" viewBox="0 0 640 640" width="150" height="150"><defs><path d="M600.77 319.97C600.72 319.97 600.72 319.97 600.77 319.97C600.72 241.86 564.82 172.21 508.66 126.6C500.02 119.88 487.55 121.35 480.72 129.93C473.83 138.57 475.3 151.15 483.94 158.04C483.9 158.01 483.58 157.78 483.54 157.76C530.67 196.08 560.75 254.5 560.75 319.92C560.76 319.92 560.81 319.92 560.81 319.92C560.81 385.39 530.67 443.81 483.49 482.07C483.52 482.05 483.84 481.82 483.88 481.79C475.24 488.68 473.78 501.26 480.66 509.9C487.49 518.48 500.02 519.95 508.66 513.23C564.82 467.74 600.77 398.09 600.77 319.97C600.77 320.03 600.77 319.97 600.77 319.97C600.77 319.97 600.77 319.97 600.77 319.97Z" id="a2xqpfDAmC"></path><path d="M373.81 319.96C373.81 351.37 348.57 376.86 317.48 376.86C286.39 376.86 261.14 351.37 261.14 319.96C261.14 288.55 286.39 263.06 317.48 263.06C348.57 263.06 373.81 288.55 373.81 319.96Z" id="c2lOfQxyOL"></path><path d="M511.37 320C511.33 320 511.33 320 511.37 320C511.33 260.68 484.07 207.79 441.43 173.16C434.87 168.06 425.4 169.17 420.22 175.69C414.99 182.24 416.1 191.8 422.66 197.03C422.63 197.01 422.39 196.84 422.36 196.82C458.15 225.92 480.99 270.28 480.99 319.96C480.99 319.96 481.03 319.96 481.03 319.96C481.03 369.68 458.15 414.04 422.32 443.1C422.35 443.08 422.59 442.91 422.62 442.89C416.06 448.12 414.94 457.67 420.17 464.23C425.36 470.75 434.87 471.86 441.43 466.76C484.07 432.21 511.37 379.32 511.37 320C511.37 320.05 511.37 320 511.37 320C511.37 320 511.37 320 511.37 320Z" id="b3nYm11rP"></path><path d="M34.67 320.02C34.73 320.02 34.73 320.02 34.67 320.02C34.73 241.9 70.63 172.25 126.79 126.64C135.42 119.93 147.9 121.4 154.72 129.97C161.61 138.61 160.14 151.2 151.51 158.08C151.55 158.05 151.86 157.83 151.9 157.8C104.77 196.13 74.69 254.54 74.69 319.96C74.68 319.96 74.64 319.96 74.63 319.96C74.63 385.43 104.77 443.85 151.96 482.12C151.92 482.09 151.6 481.86 151.56 481.84C160.2 488.72 161.67 501.31 154.78 509.94C147.95 518.52 135.42 519.99 126.79 513.27C70.63 467.78 34.67 398.13 34.67 320.02C34.67 320.07 34.67 320.02 34.67 320.02C34.67 320.02 34.67 320.02 34.67 320.02Z" id="h1CaeFsErF"></path><path d="M124.07 320.05C124.11 320.05 124.11 320.05 124.07 320.05C124.11 260.73 151.37 207.83 194.01 173.2C200.57 168.1 210.04 169.22 215.23 175.73C220.46 182.29 219.34 191.85 212.79 197.08C212.82 197.06 213.06 196.88 213.09 196.86C177.3 225.97 154.46 270.33 154.46 320C154.45 320 154.42 320 154.41 320C154.41 369.72 177.3 414.09 213.13 443.15C213.1 443.12 212.86 442.95 212.83 442.93C219.39 448.16 220.5 457.72 215.27 464.28C210.09 470.79 200.57 471.91 194.01 466.81C151.37 432.26 124.07 379.37 124.07 320.05C124.07 320.09 124.07 320.05 124.07 320.05C124.07 320.05 124.07 320.05 124.07 320.05Z" id="blOIXIHaT"></path></defs><g><g><g><use xlink:href="#a2xqpfDAmC" opacity="1" fill="#8392a9" fill-opacity="1"></use><g><use xlink:href="#a2xqpfDAmC" opacity="1" fill-opacity="0" stroke="#000000" stroke-width="1" stroke-opacity="0"></use></g></g><g><g><use xlink:href="#c2lOfQxyOL" opacity="1" fill-opacity="0" stroke="#8392a9" stroke-width="25" stroke-opacity="1"></use></g></g><g><use xlink:href="#b3nYm11rP" opacity="1" fill="#8392a9" fill-opacity="1"></use><g><use xlink:href="#b3nYm11rP" opacity="1" fill-opacity="0" stroke="#000000" stroke-width="1" stroke-opacity="0"></use></g></g><g><use xlink:href="#h1CaeFsErF" opacity="1" fill="#8392a9" fill-opacity="1"></use><g><use xlink:href="#h1CaeFsErF" opacity="1" fill-opacity="0" stroke="#000000" stroke-width="1" stroke-opacity="0"></use></g></g><g><use xlink:href="#blOIXIHaT" opacity="1" fill="#8392a9" fill-opacity="1"></use><g><use xlink:href="#blOIXIHaT" opacity="1" fill-opacity="0" stroke="#000000" stroke-width="1" stroke-opacity="0"></use></g></g></g></g></svg>